<?xml version="1.0" standalone="no"?>
<!DOCTYPE svg PUBLIC "-//W3C//DTD SVG 20010904//EN"
 "http://www.w3.org/TR/2001/REC-SVG-20010904/DTD/svg10.dtd">
<svg version="1.0" xmlns="http://www.w3.org/2000/svg"
 width="700.000000pt" height="700.000000pt" viewBox="0 0 700.000000 700.000000"
 preserveAspectRatio="xMidYMid meet">
<metadata>
Created by potrace 1.14, written by Peter Selinger 2001-2017
</metadata>
<g transform="translate(0.000000,700.000000) scale(0.100000,-0.100000)"
fill="#000000" stroke="none">
<path d="M1950 6993 c-8 -2 -29 -11 -47 -19 -17 -8 -35 -14 -40 -14 -5 0 -28
-16 -50 -35 -56 -47 -85 -114 -84 -188 1 -61 8 -78 130 -299 l31 -56 -82 -48
c-46 -26 -146 -89 -222 -141 -344 -233 -598 -474 -896 -849 -4 -6 -40 -58 -78
-115 -230 -346 -392 -718 -492 -1134 -21 -88 -41 -173 -44 -190 -2 -16 -11
-73 -20 -125 -9 -52 -18 -120 -21 -150 -4 -30 -8 -66 -10 -79 -30 -179 -24
-809 10 -1046 3 -22 7 -61 10 -87 4 -40 39 -248 60 -353 12 -59 36 -161 56
-237 33 -122 46 -114 188 109 163 255 219 334 337 467 164 185 344 310 555
384 47 17 99 33 115 35 16 3 54 11 84 17 147 29 501 32 675 5 17 -3 44 -7 60
-10 17 -3 75 -8 131 -11 135 -9 141 -5 250 153 122 179 296 405 368 479 12 12
40 43 63 70 63 74 173 187 177 183 3 -4 58 -118 156 -324 26 -55 72 -152 103
-215 30 -63 78 -163 106 -222 28 -60 74 -156 102 -215 28 -60 71 -148 94 -198
23 -49 71 -148 105 -220 34 -71 83 -173 107 -225 101 -212 143 -301 203 -425
34 -71 79 -166 100 -210 21 -44 66 -138 100 -210 123 -257 307 -645 341 -720
73 -162 266 -353 449 -445 102 -51 185 -72 300 -75 156 -3 264 25 441 116 172
88 251 184 318 385 29 87 37 124 50 234 12 108 -1 251 -35 367 -72 248 -155
342 -309 349 -54 2 -79 -2 -110 -17 -84 -40 -142 -145 -130 -238 3 -23 23 -83
44 -134 122 -286 92 -485 -82 -543 -144 -48 -309 46 -464 263 -24 34 -200 391
-438 888 -29 61 -96 200 -150 310 -54 110 -128 263 -165 340 -37 77 -107 221
-155 320 -100 206 -217 447 -315 650 -37 77 -118 244 -180 370 -143 295 -136
275 -102 276 15 1 38 2 52 4 219 26 669 25 935 0 33 -3 65 -8 72 -10 17 -6 84
56 124 116 20 30 72 110 115 178 323 515 626 753 1054 827 151 26 475 26 680
-1 151 -19 254 -25 288 -16 22 6 21 7 -19 66 -63 90 -214 288 -254 331 -5 6
-39 44 -75 85 -71 80 -305 317 -385 389 -497 448 -1059 763 -1613 905 -56 15
-115 29 -130 31 -15 3 -43 9 -62 14 -19 5 -53 11 -75 15 -22 3 -51 7 -65 10
-273 43 -645 47 -900 10 -34 -5 -108 -16 -145 -21 -31 -5 -92 -16 -177 -34
-150 -30 -455 -125 -629 -196 -49 -20 -92 -35 -94 -33 -2 2 -35 70 -73 150
-76 158 -115 205 -191 227 -39 12 -104 15 -131 5z m650 -719 c350 -62 701
-219 970 -434 155 -123 409 -393 542 -575 4 -5 18 -23 31 -40 40 -50 166 -239
183 -275 4 -7 24 -41 44 -75 69 -113 250 -490 250 -520 0 -4 -28 -5 -62 -1
-358 34 -711 26 -931 -23 -23 -6 -56 -12 -72 -15 -114 -20 -447 -136 -505
-176 -14 -9 -33 -20 -43 -23 -31 -11 -181 -113 -247 -168 -226 -186 -375 -390
-497 -679 -10 -23 -14 -18 -61 80 -122 259 -249 640 -301 905 -6 28 -13 61
-16 75 -8 42 -24 132 -30 180 -3 25 -8 52 -10 60 -2 8 -7 44 -10 79 -3 35 -8
78 -11 95 -17 128 -23 415 -11 601 17 258 70 475 163 660 66 133 79 144 256
218 84 35 160 67 168 70 19 7 90 0 200 -19z"/>
</g>
</svg>
