<?xml version="1.0" standalone="no"?>
<!DOCTYPE svg PUBLIC "-//W3C//DTD SVG 20010904//EN"
 "http://www.w3.org/TR/2001/REC-SVG-20010904/DTD/svg10.dtd">
<svg version="1.0" xmlns="http://www.w3.org/2000/svg"
 width="700.000000pt" height="700.000000pt" viewBox="0 0 700.000000 700.000000"
 preserveAspectRatio="xMidYMid meet">
<metadata>
Created by potrace 1.14, written by Peter Selinger 2001-2017
</metadata>
<g transform="translate(0.000000,700.000000) scale(0.100000,-0.100000)"
fill="#000000" stroke="none">
<path d="M2720 6691 c-92 -30 -163 -89 -226 -189 -42 -65 -120 -218 -159 -311
-28 -68 -136 -358 -139 -375 -2 -6 -13 -45 -25 -86 -12 -41 -33 -113 -47 -160
-36 -120 -36 -122 -98 -275 -28 -69 -43 -94 -66 -107 -72 -41 -125 -162 -107
-246 5 -24 7 -45 5 -47 -6 -7 -130 -19 -183 -18 -187 3 -297 12 -375 33 -106
27 -146 28 -173 2 -39 -40 -6 -90 113 -173 68 -47 119 -73 253 -127 46 -19
269 -79 320 -87 52 -7 55 -13 32 -68 -19 -46 -52 -169 -61 -227 -12 -80 -7
-240 11 -330 3 -14 6 -44 7 -67 1 -37 4 -43 28 -48 26 -6 27 -9 34 -88 3 -45
8 -91 10 -102 2 -12 -8 -26 -28 -40 -64 -43 -99 -131 -90 -230 6 -72 38 -189
93 -338 65 -174 109 -269 164 -349 30 -44 48 -82 53 -114 5 -27 9 -51 9 -54 1
-3 5 -30 9 -60 5 -30 10 -64 12 -75 2 -11 9 -47 15 -80 19 -105 69 -246 135
-383 l65 -134 -26 -20 c-80 -63 -125 -120 -221 -278 -77 -126 -99 -170 -110
-215 -4 -16 -10 -34 -14 -40 -4 -5 -14 -35 -24 -66 l-17 -56 -62 -11 c-100
-18 -115 -21 -172 -43 -66 -24 -152 -81 -220 -143 -118 -109 -169 -141 -373
-234 -144 -66 -233 -117 -462 -267 -157 -103 -186 -118 -275 -151 -101 -37
-133 -59 -217 -157 l-50 -57 3466 0 3466 0 0 153 c0 148 -1 152 -23 162 -142
67 -476 261 -507 294 -47 53 -244 178 -382 244 -161 78 -288 124 -553 200 -38
11 -40 14 -37 49 5 72 -60 215 -149 328 -97 123 -237 228 -399 300 -30 13 -60
28 -66 32 -6 5 -19 54 -29 111 -17 102 -17 103 4 144 23 46 59 139 66 172 3
12 7 31 10 44 20 81 27 164 27 322 0 99 4 185 8 190 24 34 81 210 95 295 3 19
7 46 10 60 2 14 7 52 10 85 11 117 16 150 36 229 55 227 23 363 -101 420 -39
18 -45 25 -44 51 0 17 -10 71 -23 120 -13 50 -26 106 -29 125 -3 19 -12 53
-20 75 -7 22 -14 42 -14 45 0 3 35 5 78 6 128 1 206 20 332 82 132 64 193 116
186 157 -8 43 -39 88 -81 117 -66 45 -269 111 -405 132 -125 19 -120 17 -121
42 -1 13 -2 27 -3 32 -1 4 -6 33 -10 65 -4 32 -13 60 -20 63 -6 2 -13 17 -14
32 -1 15 -9 63 -18 107 -8 44 -17 123 -20 175 -7 147 -11 188 -27 285 -28 161
-28 163 -42 395 -6 101 -10 126 -35 201 -86 255 -304 384 -645 382 -80 0 -222
-10 -260 -17 -22 -4 -135 -18 -150 -19 -5 0 -50 9 -100 21 -122 28 -174 34
-282 33 l-92 0 -62 46 c-103 75 -176 105 -272 109 -45 2 -93 0 -107 -5z"/>
</g>
</svg>
